<?xml version="1.0" encoding="UTF-8"?>
<!DOCTYPE svg PUBLIC "-//W3C//DTD SVG 1.1//EN" "http://www.w3.org/Graphics/SVG/1.1/DTD/svg11.dtd">
<!-- Creator: CorelDRAW 2018 (64-Bit) -->
<svg xmlns="http://www.w3.org/2000/svg" xml:space="preserve" width="7.10985in" height="3.22616in" version="1.1" style="shape-rendering:geometricPrecision; text-rendering:geometricPrecision; image-rendering:optimizeQuality; fill-rule:evenodd; clip-rule:evenodd"
viewBox="0 0 870.47 394.98"
 xmlns:xlink="http://www.w3.org/1999/xlink">
 <defs>
  <style type="text/css">
   <![CDATA[
    .fil4 {fill:url(#id0)}
    .fil2 {fill:url(#id1)}
    .fil1 {fill:url(#id2)}
    .fil5 {fill:url(#id3)}
    .fil7 {fill:url(#id4)}
    .fil6 {fill:url(#id5)}
    .fil3 {fill:url(#id6)}
    .fil0 {fill:url(#id7)}
   ]]>
  </style>
  <linearGradient id="id0" gradientUnits="userSpaceOnUse" x1="509.3" y1="335.64" x2="870.47" y2="335.64">
   <stop offset="0" style="stop-opacity:1; stop-color:#FFFFF7"/>
   <stop offset="1" style="stop-opacity:1; stop-color:#E0E0E0"/>
  </linearGradient>
  <linearGradient id="id1" gradientUnits="userSpaceOnUse" xlink:href="#id0" x1="-41.17" y1="-2.46" x2="488.44" y2="-10.48">
  </linearGradient>
  <linearGradient id="id2" gradientUnits="userSpaceOnUse" x1="202.98" y1="206.11" x2="301.38" y2="84.12">
   <stop offset="0" style="stop-opacity:1; stop-color:#FFFFF7"/>
   <stop offset="0.588235" style="stop-opacity:1; stop-color:#B3B3AF"/>
   <stop offset="1" style="stop-opacity:1; stop-color:#666666"/>
  </linearGradient>
  <linearGradient id="id3" gradientUnits="userSpaceOnUse" xlink:href="#id0" x1="509.3" y1="-59.05" x2="870.47" y2="-59.05">
  </linearGradient>
  <linearGradient id="id4" gradientUnits="userSpaceOnUse" x1="699.92" y1="-42.38" x2="669.57" y2="64.41">
   <stop offset="0" style="stop-opacity:1; stop-color:black"/>
   <stop offset="0.45098" style="stop-opacity:1; stop-color:#7F7F7B"/>
   <stop offset="1" style="stop-opacity:1; stop-color:#FFFFF7"/>
  </linearGradient>
  <linearGradient id="id5" gradientUnits="userSpaceOnUse" x1="318.26" y1="314.34" x2="553.2" y2="110.32">
   <stop offset="0" style="stop-opacity:1; stop-color:#FFFFF7"/>
   <stop offset="1" style="stop-opacity:1; stop-color:#DBDBDB"/>
  </linearGradient>
  <linearGradient id="id6" gradientUnits="userSpaceOnUse" xlink:href="#id0" x1="-41.17" y1="393.31" x2="488.44" y2="385.29">
  </linearGradient>
  <linearGradient id="id7" gradientUnits="userSpaceOnUse" x1="395.61" y1="102.19" x2="733.61" y2="-333.92">
   <stop offset="0" style="stop-opacity:1; stop-color:#FFFFF7"/>
   <stop offset="1" style="stop-opacity:1; stop-color:#DEDEDE"/>
  </linearGradient>
 </defs>
 <g id="Layer_x0020_1">
  <metadata id="CorelCorpID_0Corel-Layer"/>
  <g id="_2418141431904">
   <polygon class="fil0" points="193.85,0 870.47,0 870.47,308.64 471.87,215.7 "/>
   <polygon class="fil1" points="2.84,0 420.26,349 642.04,394.98 2.84,394.98 "/>
   <polygon class="fil2" points="198.96,0 363.49,131.61 227.22,187.6 2.84,0 "/>
   <polygon class="fil3" points="2.83,394.98 -0,236.61 197.98,394.98 "/>
   <polygon class="fil4" points="509.3,224.43 870.47,308.64 870.44,394.98 645.19,394.98 "/>
   <polygon class="fil5" points="870.47,0 870.47,51.62 645.81,1.63 644.52,0 "/>
   <polygon class="fil6" points="363.49,131.61 471.87,215.7 509.3,224.43 645.19,394.98 642.04,394.98 420.26,349 211.55,174.5 "/>
   <path class="fil7" d="M870.47 160.49l-511.59 -160.49c187.43,0 281.15,0 281.15,0l230.44 50.93 0 109.57z"/>
  </g>
 </g>
</svg>
