<?xml version="1.0" encoding="UTF-8"?>
<!DOCTYPE svg PUBLIC "-//W3C//DTD SVG 1.1//EN" "http://www.w3.org/Graphics/SVG/1.1/DTD/svg11.dtd">
<!-- Creator: CorelDRAW 2018 (64-Bit) -->
<svg xmlns="http://www.w3.org/2000/svg" xml:space="preserve" width="0.408055in" height="0.548394in" version="1.1" style="shape-rendering:geometricPrecision; text-rendering:geometricPrecision; image-rendering:optimizeQuality; fill-rule:evenodd; clip-rule:evenodd"
viewBox="0 0 3.41 4.59"
 xmlns:xlink="http://www.w3.org/1999/xlink">
 <defs>
  <style type="text/css">
   <![CDATA[
    .fil0 {fill:#EDEDED}
   ]]>
  </style>
 </defs>
 <g id="Layer_x0020_1">
  <metadata id="CorelCorpID_0Corel-Layer"/>
  <g id="_2012905987664">
   <rect class="fil0" x="1.98" y="2.08" width="0.82" height="1.32"/>
   <polygon class="fil0" points="0.11,1.85 3.27,1.85 3.27,1.76 2.8,0.74 2.81,0 2.72,0.11 0.68,0.11 0.59,0 0.61,0.73 0.11,1.76 "/>
   <polygon class="fil0" points="0.32,3.44 0.38,3.44 0.38,1.94 0.32,1.94 "/>
   <polygon class="fil0" points="3,3.44 3.06,3.44 3.06,1.94 3,1.94 "/>
   <rect class="fil0" x="0.55" y="2.08" width="1.23" height="1.32"/>
   <polygon class="fil0" points="2.31,4.09 2.35,4.17 1.04,4.17 1.06,4.09 "/>
   <polygon class="fil0" points="2.38,4.27 2.42,4.35 0.97,4.35 0.99,4.27 "/>
   <polygon class="fil0" points="2.45,4.45 2.49,4.53 0.9,4.53 0.92,4.45 "/>
   <polygon class="fil0" points="0.11,3.93 3.27,3.93 3.27,4 3.27,4.59 3.11,4.59 3.11,4 0.27,4 0.27,4.59 0.11,4.59 0.11,4 "/>
   <polygon class="fil0" points="0.02,1.77 -0,3.91 0.05,3.91 0.05,1.76 0.52,0.74 "/>
   <polygon class="fil0" points="3.4,1.77 3.41,3.91 3.36,3.91 3.36,1.76 2.89,0.74 "/>
  </g>
 </g>
</svg>
