<?xml version="1.0" encoding="UTF-8"?>
<!DOCTYPE svg PUBLIC "-//W3C//DTD SVG 1.1//EN" "http://www.w3.org/Graphics/SVG/1.1/DTD/svg11.dtd">
<!-- Creator: CorelDRAW 2018 (64-Bit) -->
<svg xmlns="http://www.w3.org/2000/svg" xml:space="preserve" width="0.352705in" height="0.430535in" version="1.1" style="shape-rendering:geometricPrecision; text-rendering:geometricPrecision; image-rendering:optimizeQuality; fill-rule:evenodd; clip-rule:evenodd"
viewBox="0 0 2.09 2.55"
 xmlns:xlink="http://www.w3.org/1999/xlink">
 <defs>
  <style type="text/css">
   <![CDATA[
    .fil0 {fill:#EDEDED}
   ]]>
  </style>
 </defs>
 <g id="Layer_x0020_1">
  <metadata id="CorelCorpID_0Corel-Layer"/>
  <g id="_2012906324928">
   <path class="fil0" d="M1.05 0.42l0 0c0.51,0 0.93,0.36 0.93,0.8l0 1.01 0.11 0.14 -0.11 -0 -1.86 0 -0.11 0 0.11 -0.13 0 -1.01c0,-0.44 0.42,-0.8 0.93,-0.8zm0.6 1.3c0.05,0.01 0.07,0.01 0.07,0.01 0.09,-0.56 -0.06,-0.89 -0.46,-0.99 -0.03,0.06 -0.04,0.09 -0.04,0.09 0.35,0.03 0.5,0.33 0.43,0.89z"/>
   <path class="fil0" d="M1.05 0c0.15,0 0.28,0.12 0.28,0.28 0,0.05 -0.01,0.09 -0.03,0.13 -0.08,-0.02 -0.16,-0.03 -0.25,-0.03l0 0c-0.08,0 -0.17,0.01 -0.25,0.03 -0.02,-0.04 -0.03,-0.08 -0.03,-0.13 0,-0.15 0.12,-0.28 0.28,-0.28z"/>
   <path class="fil0" d="M1.43 2.42c-0.06,0.08 -0.21,0.13 -0.38,0.13 -0.17,0 -0.32,-0.05 -0.38,-0.13l0.77 0z"/>
  </g>
 </g>
</svg>
