<?xml version="1.0" encoding="UTF-8"?>
<!DOCTYPE svg PUBLIC "-//W3C//DTD SVG 1.1//EN" "http://www.w3.org/Graphics/SVG/1.1/DTD/svg11.dtd">
<!-- Creator: CorelDRAW 2018 (64-Bit) -->
<svg xmlns="http://www.w3.org/2000/svg" xml:space="preserve" width="0.332268in" height="0.381039in" version="1.1" style="shape-rendering:geometricPrecision; text-rendering:geometricPrecision; image-rendering:optimizeQuality; fill-rule:evenodd; clip-rule:evenodd"
viewBox="0 0 1.91 2.19"
 xmlns:xlink="http://www.w3.org/1999/xlink">
 <defs>
  <style type="text/css">
   <![CDATA[
    .fil0 {fill:#0077ED}
   ]]>
  </style>
 </defs>
 <g id="Layer_x0020_1">
  <metadata id="CorelCorpID_0Corel-Layer"/>
  <path class="fil0" d="M0.29 0.17c0.34,-0.27 0.82,-0.21 1.09,0.13 0.26,0.32 0.21,0.79 -0.09,1.06l0.62 0.78 -0.07 0.05 -0.62 -0.78c-0.33,0.24 -0.8,0.17 -1.06,-0.15 -0.27,-0.34 -0.21,-0.82 0.13,-1.09zm0.05 0.07c0.3,-0.24 0.73,-0.19 0.97,0.11 0.24,0.3 0.19,0.73 -0.11,0.97 -0.3,0.24 -0.73,0.19 -0.97,-0.11 -0.24,-0.3 -0.19,-0.73 0.11,-0.97z"/>
 </g>
</svg>
