<?xml version="1.0" encoding="UTF-8"?>
<!DOCTYPE svg PUBLIC "-//W3C//DTD SVG 1.1//EN" "http://www.w3.org/Graphics/SVG/1.1/DTD/svg11.dtd">
<!-- Creator: CorelDRAW 2018 (64-Bit) -->
<svg xmlns="http://www.w3.org/2000/svg" xml:space="preserve" width="0.149457in" height="0.17139in" version="1.1" style="shape-rendering:geometricPrecision; text-rendering:geometricPrecision; image-rendering:optimizeQuality; fill-rule:evenodd; clip-rule:evenodd"
viewBox="0 0 0.58 0.66"
 xmlns:xlink="http://www.w3.org/1999/xlink">
 <defs>
  <style type="text/css">
   <![CDATA[
    .fil0 {fill:white}
   ]]>
  </style>
 </defs>
 <g id="Layer_x0020_1">
  <metadata id="CorelCorpID_0Corel-Layer"/>
  <path class="fil0" d="M0.09 0.05c0.1,-0.08 0.25,-0.06 0.33,0.04 0.08,0.1 0.06,0.24 -0.03,0.32l0.19 0.24 -0.02 0.02 -0.19 -0.24c-0.1,0.07 -0.24,0.05 -0.32,-0.05 -0.08,-0.1 -0.06,-0.25 0.04,-0.33zm0.02 0.02c0.09,-0.07 0.22,-0.06 0.29,0.03 0.07,0.09 0.06,0.22 -0.03,0.29 -0.09,0.07 -0.22,0.06 -0.29,-0.03 -0.07,-0.09 -0.06,-0.22 0.03,-0.29z"/>
 </g>
</svg>
