<?xml version="1.0" encoding="UTF-8"?>
<!DOCTYPE svg PUBLIC "-//W3C//DTD SVG 1.1//EN" "http://www.w3.org/Graphics/SVG/1.1/DTD/svg11.dtd">
<!-- Creator: CorelDRAW 2018 (64-Bit) -->
<svg xmlns="http://www.w3.org/2000/svg" xml:space="preserve" width="0.207146in" height="0.24452in" version="1.1" style="shape-rendering:geometricPrecision; text-rendering:geometricPrecision; image-rendering:optimizeQuality; fill-rule:evenodd; clip-rule:evenodd"
viewBox="0 0 3.5 4.13"
 xmlns:xlink="http://www.w3.org/1999/xlink">
 <defs>
  <style type="text/css">
   <![CDATA[
    .fil0 {fill:#1B5E9A}
   ]]>
  </style>
 </defs>
 <g id="Layer_x0020_1">
  <metadata id="CorelCorpID_0Corel-Layer"/>
  <g id="_2386225717760">
   <g>
    <path class="fil0" d="M0.16 0l2.5 0c0.09,0 0.16,0.07 0.17,0.16l0.09 3.81c0,0.09 -0.07,0.16 -0.16,0.16l-2.5 0c-0.09,0 -0.16,-0.07 -0.17,-0.16l-0.09 -3.81c-0,-0.09 0.07,-0.16 0.16,-0.16zm1.62 0.39l0 0.04c0,0.04 -0.03,0.1 -0.08,0.1l-0.57 0c-0.05,0 -0.09,-0.06 -0.09,-0.1l0 -0.04 -0.68 0 0.08 3.23 2.12 0 -0.08 -3.23 -0.71 0zm-0.03 0l0 0.04c0,0.04 -0.03,0.07 -0.07,0.07l-0.52 0c-0.04,0 -0.07,-0.03 -0.07,-0.07l0 -0.04 0.67 0zm-0.89 -0.18l1.11 0c0.02,0 0.04,0.02 0.04,0.04l0 0c0,0.02 -0.02,0.04 -0.04,0.04l-1.11 0c-0.02,0 -0.04,-0.02 -0.04,-0.04l0 0c-0,-0.02 0.02,-0.04 0.04,-0.04z"/>
    <rect class="fil0" transform="matrix(0.278155 -0 0.00646797 0.294122 0.600253 0.659068)" width="5.78" height="0.06"/>
    <rect class="fil0" transform="matrix(0.278155 -0 0.00646797 0.294122 0.604688 0.860769)" width="5.78" height="0.06"/>
    <rect class="fil0" transform="matrix(0.278155 -0 0.00646797 0.294122 0.609124 1.06247)" width="5.78" height="0.06"/>
    <rect class="fil0" transform="matrix(0.278155 -0 0.00646797 0.294122 0.613559 1.26417)" width="5.78" height="0.06"/>
    <rect class="fil0" transform="matrix(0.278155 -0 0.00646797 0.294122 0.617995 1.46587)" width="5.78" height="0.06"/>
    <rect class="fil0" transform="matrix(0.278155 -0 0.00646797 0.294122 0.62243 1.66757)" width="5.78" height="0.06"/>
    <rect class="fil0" transform="matrix(0.278155 -0 0.00646797 0.294122 0.626866 1.86927)" width="5.78" height="0.06"/>
    <rect class="fil0" transform="matrix(0.278155 -0 0.00646797 0.294122 0.631301 2.07097)" width="5.78" height="0.06"/>
    <rect class="fil0" transform="matrix(0.149665 -0 0.00646797 0.294122 0.635737 2.27267)" width="5.78" height="0.06"/>
   </g>
   <path class="fil0" d="M3.34 3.57c0,0 -0,0 0.01,0 0.01,-0 0.01,0 0,-0 0.01,-0 0,0 0.01,-0.01l0.01 -0.05c0,-0.02 -0,-0.01 0.01,-0.02 0,-0.01 0.01,-0.03 0.01,-0.04 0,-0.01 0,-0.01 0,-0.02 0,-0.01 0,-0.02 0,-0.02 0,-0 0.01,-0.01 0.01,-0.02l0.03 -0.19 0.01 -0.18c0,-0.03 0,-0.11 0,-0.14 0,-0.06 0,-0.12 0,-0.19l0 -0.48c0,-0.03 0,-0.06 0,-0.09 0,-0.03 0,-0.17 -0,-0.19 0.01,-0.01 0,-0.02 0,-0.03l0 -0.07c-0,-0.02 0,-0.02 0,-0.05l0 -0.75 0.01 0 0.01 0.53 0.02 -0.38 -0 -0.24c-0,-0.02 -0.01,-0.04 -0.02,-0.05 -0.01,-0 -0.01,0.03 -0.01,0.05l-0.01 0 0 -0.02c0,-0.01 0,-0.02 0,-0.03 -0,-0.01 -0.01,-0.02 -0.01,-0.02 -0.01,-0.02 -0,-0.03 -0.02,-0.04l-0 -0c0.01,-0 0.01,0 0.01,-0 -0.01,-0 -0.01,-0 -0.02,-0 0.01,-0.01 0,-0.02 0,-0.04l-0 -0.09c-0,-0.01 -0,-0.01 -0.01,-0.01 -0.01,-0 -0.01,-0 -0.02,-0.01l-0 0c-0,-0.01 -0,-0 -0.02,-0 -0.03,0 -0.02,-0 -0.05,0 -0.01,0 -0.01,0 -0.02,0.01 0,0.02 -0,0.13 0,0.14 -0.01,0 -0.01,0 -0.02,0.01 -0,0.01 -0,-0 0,0.01 0.01,-0 0.02,-0 0.03,-0 0.01,0 0.05,-0 0.05,-0.01l-0.02 -0 -0 -0.14 0 0.19c-0.01,0 -0.02,0 -0.04,0l0 0c-0.01,-0 -0.01,-0 -0.02,0 -0,0 -0.01,0.01 -0.01,0.01 0,0.01 0,0.09 0,0.11l0 0.73c0,0.01 0,0.04 -0,0.05 -0,0 -0,0 -0,0 -0,0 0,-0.01 -0,0l0 -0c0.01,-0 0,-0 0.01,0 -0,0.01 -0,0 -0.01,0.01 -0,0 -0,0.01 -0.01,0.01l-0 -0 -0 -0 0 0 0 0c0,0 0,0 0,0l0.01 0c0,0 0,0 0,0l-0 0.01c0.01,0 0.02,0 0.03,0 0.01,0 0.01,-0 0.02,-0l0.02 0 0 1.77 -0 -1.77 0 0 0 1.77zm-0.04 -2.18l-0 -0.49c-0,-0 -0,-0 0,-0l0 -0.01c-0,-0 0,-0 -0.01,-0.01 -0,0.04 -0,0.07 -0,0.11 0,0.03 -0,0.07 -0,0.1 -0,0.07 -0,0.14 -0,0.21 0,0.1 -0,0.22 0,0.32l-0 0.1c0.01,-0.01 0.01,-0.08 0.01,-0.1l0 -0.23zm-0 -0.5l0 -0.01 -0 -0c0,0.01 0,0.01 0,0.01zm-0.03 -0.06l-0 0c-0,0 -0,0 -0,0 0,0 -0,0 -0,0l0 -0c-0,0 0,-0 0,-0l0 -0zm-0.01 0c-0.01,0.01 -0.01,0.02 -0.01,0.02 -0,0.01 0,-0 -0,0l-0.01 0.02c-0,0.01 -0,0.05 -0,0.06 0,0.03 0,0.36 0,0.4 0,0.02 0,0.05 0,0.07l0 0.03c0,0.01 -0,0.02 -0,0.03l0 0.27c0,0.01 -0,0.02 -0,0.03 0.01,0.2 0.01,0.43 0.01,0.63l-0 0.53c0,0.01 -0,0 0,0.01 -0.01,0.02 0.01,0.15 0.01,0.18l0.02 0.2c0,0.01 0,0.02 0,0.03 0,0.01 0,0.02 0,0.03 0,0.01 0,0.02 0.01,0.03 0,0.01 0,0 0,0.01l0 0.01c0.01,0.02 0.01,0.05 0.01,0.07 0,0.01 -0,0.02 0.01,0.02 0,0.02 0.01,0.03 0.01,0.06 0,0.01 0,0.01 0.01,0.02l0 0 -0.07 -2.73zm0.07 -0c0,0.01 0,0.01 0,0.02 -0.01,-0 -0.02,0 -0.03,-0 -0.01,0 -0,0 -0.01,0.01 -0.01,0 -0.01,0 -0.01,-0 0,-0.01 -0,-0.01 0.01,-0.02 0.01,-0 0.03,-0.01 0.04,-0zm0 2.74l0 0 -0 0z"/>
  </g>
 </g>
</svg>
