<?xml version="1.0" encoding="UTF-8"?>
<!DOCTYPE svg PUBLIC "-//W3C//DTD SVG 1.1//EN" "http://www.w3.org/Graphics/SVG/1.1/DTD/svg11.dtd">
<!-- Creator: CorelDRAW 2018 (64-Bit) -->
<svg xmlns="http://www.w3.org/2000/svg" xml:space="preserve" width="0.330728in" height="0.16361in" version="1.1" style="shape-rendering:geometricPrecision; text-rendering:geometricPrecision; image-rendering:optimizeQuality; fill-rule:evenodd; clip-rule:evenodd"
viewBox="0 0 9.67 4.79"
 xmlns:xlink="http://www.w3.org/1999/xlink">
 <defs>
  <style type="text/css">
   <![CDATA[
    .fil0 {fill:#1B5E9A}
   ]]>
  </style>
 </defs>
 <g id="Layer_x0020_1">
  <metadata id="CorelCorpID_0Corel-Layer"/>
  <path class="fil0" d="M3.43 0l2.8 0.67 -1.13 0.62 -1.42 -0.33 -0 -0.01 -0.01 0 -1.45 -0.34 1.21 -0.62zm6.24 1.49l0 1.55 -0.9 0.46 -4.76 -1.3 2.5 -1.46 3.15 0.75zm-9.67 1.8l0 -0.06 3.7 -2.07 1.14 0.27 -1.2 0.66 -0.09 0.18 4.89 1.4 -2.22 1.12 -4.26 -1.02 -1.97 -0.47zm0 -0.32l0 -1.22 1.95 -1 1.47 0.34 -3.42 1.88z"/>
 </g>
</svg>
