<?xml version="1.0" encoding="UTF-8"?>
<!DOCTYPE svg PUBLIC "-//W3C//DTD SVG 1.1//EN" "http://www.w3.org/Graphics/SVG/1.1/DTD/svg11.dtd">
<!-- Creator: CorelDRAW 2018 (64-Bit) -->
<svg xmlns="http://www.w3.org/2000/svg" xml:space="preserve" width="0.132122in" height="0.237252in" version="1.1" style="shape-rendering:geometricPrecision; text-rendering:geometricPrecision; image-rendering:optimizeQuality; fill-rule:evenodd; clip-rule:evenodd"
viewBox="0 0 1.43 2.57"
 xmlns:xlink="http://www.w3.org/1999/xlink">
 <defs>
  <style type="text/css">
   <![CDATA[
    .fil0 {fill:#1B5E9A}
   ]]>
  </style>
 </defs>
 <g id="Layer_x0020_1">
  <metadata id="CorelCorpID_0Corel-Layer"/>
  <path class="fil0" d="M1.43 1.86c0,0.4 -0.32,0.72 -0.72,0.72 -0.4,0 -0.72,-0.32 -0.72,-0.72 0,-0.02 0.03,-0.2 0.03,-0.2 0.22,-0.63 0.43,-0.8 0.69,-1.65 0.23,0.86 0.47,1.04 0.69,1.65 0,0 0.03,0.18 0.03,0.2zm-0.53 0.54c-0.05,0.02 -0.13,0.03 -0.19,0.03 -0.34,-0.01 -0.53,-0.3 -0.54,-0.48 -0,-0.04 0,-0.19 0.05,-0.28 -0.02,0.13 -0.01,0.24 0.08,0.42 0.09,0.17 0.36,0.35 0.59,0.32z"/>
 </g>
</svg>
