<?xml version="1.0" encoding="UTF-8"?>
<!DOCTYPE svg PUBLIC "-//W3C//DTD SVG 1.1//EN" "http://www.w3.org/Graphics/SVG/1.1/DTD/svg11.dtd">
<!-- Creator: CorelDRAW 2018 (64-Bit) -->
<svg xmlns="http://www.w3.org/2000/svg" xml:space="preserve" width="0.234102in" height="0.272461in" version="1.1" style="shape-rendering:geometricPrecision; text-rendering:geometricPrecision; image-rendering:optimizeQuality; fill-rule:evenodd; clip-rule:evenodd"
viewBox="0 0 4.42 5.14"
 xmlns:xlink="http://www.w3.org/1999/xlink">
 <defs>
  <style type="text/css">
   <![CDATA[
    .fil0 {fill:#1B5E9A}
   ]]>
  </style>
 </defs>
 <g id="Layer_x0020_1">
  <metadata id="CorelCorpID_0Corel-Layer"/>
  <g id="_2386228247216">
   <path class="fil0" d="M2.28 5.14l0.35 -0.03c0.63,-0.09 1.45,-0.51 1.76,-1.08 0.07,-0.13 -0.03,-0.46 -0.05,-0.63 -0.04,-0.24 -0.09,-0.39 -0.28,-0.48 -0.47,-0.22 -1.39,-0.31 -1.18,-0.67 0.21,-0.28 0.25,-0.34 0.34,-0.81l-0.17 -0c-0.08,0.56 -0.43,0.98 -0.79,1 -0.44,-0.02 -0.83,-0.51 -0.89,-1l-0.15 -0c0.05,0.35 0.09,0.41 0.27,0.7 0.1,0.17 0.26,0.31 -0.25,0.48 -0.26,0.08 -0.5,0.17 -0.76,0.26 -0.32,0.11 -0.33,0.26 -0.39,0.59 -0.08,0.42 -0.15,0.41 0.09,0.71 0.14,0.18 0.32,0.35 0.52,0.48 0.45,0.29 0.89,0.47 1.59,0.47z"/>
   <path class="fil0" d="M1.77 0.09c-0.04,0.27 0.06,0.56 0.08,0.82 -0.1,-0.21 -0.12,-0.48 -0.2,-0.67 -0.42,0.23 -0.44,0.67 -0.5,0.77 -0.07,0.14 -0.09,0.16 -0.06,0.37 0.55,0.01 0.21,0.06 0.52,0.07l1.19 -0c0.21,0 0.13,-0.02 0.26,-0.05 0.09,-0.02 0.2,-0.01 0.29,-0.01 0.01,-0.16 0.02,-0.22 -0.05,-0.35 -0.05,-0.09 -0.11,-0.58 -0.51,-0.78 -0.04,0.08 -0.06,0.25 -0.09,0.35 -0.03,0.12 -0.08,0.23 -0.11,0.33 -0.01,-0.27 0.11,-0.52 0.07,-0.83 -0.28,-0.12 -0.6,-0.13 -0.88,0z"/>
  </g>
 </g>
</svg>
