<?xml version="1.0" encoding="UTF-8"?>
<!DOCTYPE svg PUBLIC "-//W3C//DTD SVG 1.1//EN" "http://www.w3.org/Graphics/SVG/1.1/DTD/svg11.dtd">
<!-- Creator: CorelDRAW 2018 (64-Bit) -->
<svg xmlns="http://www.w3.org/2000/svg" xml:space="preserve" width="0.237941in" height="0.199488in" version="1.1" style="shape-rendering:geometricPrecision; text-rendering:geometricPrecision; image-rendering:optimizeQuality; fill-rule:evenodd; clip-rule:evenodd"
viewBox="0 0 4.58 3.84"
 xmlns:xlink="http://www.w3.org/1999/xlink">
 <defs>
  <style type="text/css">
   <![CDATA[
    .fil0 {fill:#1B5E9A}
   ]]>
  </style>
 </defs>
 <g id="Layer_x0020_1">
  <metadata id="CorelCorpID_0Corel-Layer"/>
  <g id="_2386228238128">
   <rect class="fil0" x="2.52" y="1.74" width="0.68" height="1.11"/>
   <polygon class="fil0" points="0.96,1.55 3.61,1.55 3.61,1.47 3.21,0.62 3.22,0 3.14,0.09 1.44,0.09 1.37,0 1.38,0.61 0.96,1.47 "/>
   <polygon class="fil0" points="1.14,2.88 1.19,2.88 1.19,1.62 1.14,1.62 "/>
   <polygon class="fil0" points="3.38,2.88 3.43,2.88 3.43,1.62 3.38,1.62 "/>
   <rect class="fil0" x="1.33" y="1.74" width="1.03" height="1.11"/>
   <polygon class="fil0" points="2.81,3.42 2.83,3.48 1.74,3.48 1.76,3.42 "/>
   <polygon class="fil0" points="2.86,3.57 2.89,3.64 1.68,3.64 1.7,3.57 "/>
   <polygon class="fil0" points="2.92,3.73 2.95,3.79 1.62,3.79 1.64,3.73 "/>
   <polygon class="fil0" points="0.96,3.29 3.61,3.29 3.61,3.34 3.61,3.84 3.47,3.84 3.47,3.34 1.1,3.34 1.1,3.84 0.96,3.84 0.96,3.34 "/>
   <polygon class="fil0" points="4.58,1.29 4.58,1.39 4.37,1.38 4.36,3.27 3.67,3.27 3.67,1.47 3.27,0.62 "/>
   <polygon class="fil0" points="-0,1.29 0,1.39 0.21,1.38 0.22,3.27 0.91,3.27 0.91,1.47 1.31,0.62 "/>
   <rect class="fil0" x="0.22" y="3.27" width="0.11" height="0.57"/>
   <rect class="fil0" x="4.25" y="3.27" width="0.11" height="0.57"/>
  </g>
 </g>
</svg>
