<?xml version="1.0" encoding="UTF-8"?>
<!DOCTYPE svg PUBLIC "-//W3C//DTD SVG 1.1//EN" "http://www.w3.org/Graphics/SVG/1.1/DTD/svg11.dtd">
<!-- Creator: CorelDRAW 2018 (64-Bit) -->
<svg xmlns="http://www.w3.org/2000/svg" xml:space="preserve" width="0.362004in" height="0.230516in" version="1.1" style="shape-rendering:geometricPrecision; text-rendering:geometricPrecision; image-rendering:optimizeQuality; fill-rule:evenodd; clip-rule:evenodd"
viewBox="0 0 10.59 6.75"
 xmlns:xlink="http://www.w3.org/1999/xlink">
 <defs>
  <style type="text/css">
   <![CDATA[
    .fil0 {fill:#1B5E9A}
   ]]>
  </style>
 </defs>
 <g id="Layer_x0020_1">
  <metadata id="CorelCorpID_0Corel-Layer"/>
  <path class="fil0" d="M5.37 4.08l0.02 0.4 -0.19 0 0.02 -0.4 0.15 0zm-1.9 -0.1l1.82 0 1.82 0 3.47 2.77 -5.09 0 -0.03 -0.71 -0.34 0 -0.03 0.71 -5.09 0 3.47 -2.77zm1.94 0.9l0.04 0.76 -0.3 0 0.04 -0.76 0.23 0zm-2.64 -0.29l5.05 0 -0.08 -0.03 -4.89 0 -0.08 0.03z"/>
  <path class="fil0" d="M2.31 0l0.03 0 0.23 0 5.48 0 0.23 0 0.01 0 0.03 0 0 4.71 -0.03 0 0 0 -0.25 0 -0.76 -0.61 -0.08 0 0 -0.07 -0.06 -0.05 0.06 0 0 -2.7 -3.76 0 0 2.7 0.06 -0 -0.06 0.05 0 0.06 -0.08 0 -0.76 0.61 -0.25 0 0 -0 -0.01 0 0 -4.71zm5.7 4.51l-0.38 -1.6 -0.24 1.08 0 0.07 0.62 0.45zm-4.8 -0.46l0 -0.1 -0.22 -1.04 -0.36 1.56 0.58 -0.42zm4.33 -3.77l-0.51 0.78 -3.48 0 0 0 -0.51 -0.78 4.51 0zm-0.14 0.95l0.54 -0.58 -0.32 1.48 -0.21 -0.9zm-4.21 0.03l-0.49 -0.53 0.3 1.4 0.2 -0.87zm4.85 2.66l0 -2.91 -0.33 1.51 0.33 1.4zm-0.51 -1.4l-0.14 -0.61 0 1.26 0.14 -0.66zm-4.45 -0l0.13 0.62 0 -1.19 -0.13 0.57zm-0.17 0l-0.34 -1.62 0 3.11 0.34 -1.49z"/>
 </g>
</svg>
